# xmcd
#
# Track frame offsets:
# 150
# 17372
# 30870
# 45572
# 65372
# 82660
# 98267
# 113177
# 125380
# 143630
# 163117
# 177247
# 195650
# 220314
#
# Disc length: 3197 seconds
#
#
# Revision: 0
# Processed by: cddbd v1.5.2PL0 Copyright (c) Steve Scherf et al.
# Submitted via: FreeRIP 2.96 
#
DISCID=a30c7b0e
DTITLE=SUPER 3-DANIEL-CD3 - 
DYEAR=2009
DGENRE=Country
TTITLE0=TÔ DENTRO
TTITLE1=PEÃO APAIXONADO
TTITLE2=EU TÕ NO MEIO
TTITLE3=O MAIS IMPORTANTE É O VERDADEIRO AMOR
TTITLE4=PERIGOSO DEMAIS
TTITLE5=QUANDO ACABA UMA PAIXÃO
TTITLE6=EU ME AMARREI
TTITLE7=PAGO PRA VER
TTITLE8=UM BEIJO PRA ME ELOUQUECER
TTITLE9=A PAIXÃO ACABA SEMPRE ASSIM
TTITLE10=MORENINHA LINDA
TTITLE11=PORTO DA SOLIDÃO
TTITLE12=TE AMO CADA VEZ MAIS
TTITLE13=A JIRIPOCA VAI PIAR
EXTD=
EXTT0=
EXTT1=
EXTT2=
EXTT3=
EXTT4=
EXTT5=
EXTT6=
EXTT7=
EXTT8=
EXTT9=
EXTT10=
EXTT11=
EXTT12=
EXTT13=
PLAYORDER=
